<svg width="976" height="117" viewBox="0 0 976 117" fill="none" xmlns="http://www.w3.org/2000/svg">
<g clip-path="url(#clip0_636_283)">
<path d="M632.555 99.1556C641.293 99.1556 641.198 106.042 640.913 112.546C640.913 112.737 640.818 112.928 640.533 112.928C636.164 113.024 632.745 113.024 630.181 112.928C612.61 111.972 596.939 100.59 592.95 83.1832C592.38 80.5052 592 76.4882 592 71.1322C592 47.8909 592 24.6496 592 1.31263C592 1.12135 592.095 1.0257 592.38 1.0257C599.788 1.0257 606.627 0.0692749 606.532 9.82488C606.532 30.5795 606.532 51.334 606.532 71.993C606.532 80.1226 608.241 87.1046 614.035 92.2693C619.258 96.9558 625.432 99.2513 632.555 99.2513V99.1556Z" fill="#82DE0E" stroke="#82DE0E" stroke-width="2"/>
<path d="M75.5697 103.406C75.8566 103.695 75.8566 103.887 75.5697 104.175C65.9113 113.784 52.619 116.859 39.1355 115.802C34.2585 115.418 29.9553 114.553 26.3214 113.208C-8.86956 100.332 -6.76575 51.7103 28.8077 40.9482C35.9798 38.7382 45.1601 38.6421 52.4278 39.5069C61.3211 40.66 69.067 44.4075 75.8566 50.7494C76.0478 50.9415 76.0478 51.0376 75.8566 51.2298C70.5014 56.803 67.4413 60.0701 59.9824 56.3226C53.5753 53.0555 48.3158 53.0555 41.1437 53.2477C9.87347 54.1125 5.57022 95.2388 36.3623 101.485C38.4661 101.869 41.9087 102.061 46.5945 101.869C51.5671 101.677 55.8704 100.62 59.6955 98.7941C67.7282 94.8545 70.0233 98.1215 75.6653 103.406H75.5697Z" fill="#191923" stroke="black" stroke-width="2"/>
<path d="M221.489 71.5057C224.159 54.5922 238.557 41.8109 255.244 39.6006C258.677 39.1201 262.587 38.9279 266.877 39.024C285.567 39.3123 302.063 51.3248 306.164 69.872C310.741 90.7256 295.961 110.522 275.841 114.847C267.354 116.672 256.007 116.384 247.711 113.597C229.975 107.831 218.437 90.3412 221.489 71.4096V71.5057ZM258.772 53.2468C232.741 55.1688 226.161 89.7646 250.667 99.8551C256.293 102.161 264.97 102.45 270.978 101.585C283.66 99.6628 293.291 89.0919 292.528 76.0224C291.67 62.5684 280.036 53.2468 267.068 53.1507C263.254 53.1507 260.489 53.1507 258.868 53.3429L258.772 53.2468Z" fill="#191923" stroke="black" stroke-width="2"/>
<path d="M686.276 8.1254C686.276 -0.00807285 695.175 1.0445 700.246 1.0445C700.438 1.0445 700.629 1.14018 700.629 1.42725V14.7279C700.629 14.9192 700.438 15.0149 700.342 15.0149H686.85C686.563 15.0149 686.372 14.8236 686.372 14.5365C686.372 13.1012 686.372 10.9003 686.372 8.1254H686.276Z" fill="#82DE0E" stroke="#82DE0E" stroke-width="2"/>
<path d="M685.895 44.5833C685.895 35.78 694.506 36.6412 700.343 36.7369C700.535 36.7369 700.726 36.8326 700.726 37.1196C700.726 59.3192 700.726 81.5188 700.726 103.718C700.726 113.67 694.411 113.574 686.277 113.096C686.086 113.096 685.99 113 685.99 112.713C685.99 90.035 685.99 67.357 685.99 44.679L685.895 44.5833Z" fill="#82DE0E" stroke="#82DE0E" stroke-width="2"/>
<path d="M175.97 42.1957C176.254 46.2504 174.551 51.7531 170.293 53.1047C167.171 54.0701 162.535 52.7185 158.94 53.0082C148.532 53.6839 139.355 60.6348 136.327 70.9646C135.76 72.9919 135.381 76.0812 135.381 80.1359C135.381 89.2106 135.286 98.2854 135.192 107.457C135.097 116.725 128.38 116.049 121.378 115.952C121.189 115.952 121 115.856 121 115.566C121 103.305 121 91.0449 121 78.7843C121 55.8078 138.882 38.5272 161.116 39.0099C165.468 39.0099 170.198 40.0718 175.497 41.9061C175.686 41.9061 175.781 42.0991 175.781 42.2922L175.97 42.1957Z" fill="#191923" stroke="black" stroke-width="2"/>
<path d="M417.63 75.2353C412.811 71.4769 407.221 70.5131 401.052 70.3204C391.703 69.6458 375.511 71.4768 371.655 70.1277C361.728 66.562 364.234 52.8773 374.739 52.8773C385.534 52.8773 396.329 52.8773 407.124 52.8773C411.365 52.8773 417.823 53.9374 421.293 51.2391C424.666 48.5407 424.184 43.9149 423.992 39.2891C423.992 39.0964 423.895 39 423.702 39C408.859 39 394.016 39 379.269 39C373.679 39 369.824 39.3855 367.511 40.0601C344.861 46.9024 346.017 76.8736 367.896 83.4268C372.812 84.8723 397.968 84.3905 403.655 84.3905C415.703 85.5469 415.028 101.93 402.787 101.93C388.811 101.93 374.739 101.93 360.764 101.93C352.475 101.93 352.86 109.929 353.246 115.711C353.246 115.904 353.342 116 353.631 116C370.306 116 386.884 116 403.558 116C425.148 116 435.943 89.3054 417.823 75.428L417.63 75.2353Z" fill="#191923" stroke="black" stroke-width="2"/>
<path d="M537.63 75.2353C532.811 71.4769 527.221 70.5131 521.052 70.3204C511.703 69.6458 495.511 71.4768 491.655 70.1277C481.728 66.562 484.234 52.8773 494.739 52.8773C505.534 52.8773 516.329 52.8773 527.124 52.8773C531.365 52.8773 537.823 53.9374 541.293 51.2391C544.666 48.5407 544.184 43.9149 543.992 39.2891C543.992 39.0964 543.895 39 543.702 39C528.859 39 514.016 39 499.269 39C493.679 39 489.824 39.3855 487.511 40.0601C464.861 46.9024 466.017 76.8736 487.896 83.4268C492.812 84.8723 517.968 84.3905 523.655 84.3905C535.702 85.5469 535.028 101.93 522.787 101.93C508.811 101.93 494.739 101.93 480.764 101.93C472.475 101.93 472.86 109.929 473.246 115.711C473.246 115.904 473.342 116 473.631 116C490.306 116 506.884 116 523.558 116C545.148 116 555.943 89.3054 537.823 75.428L537.63 75.2353Z" fill="#191923" stroke="black" stroke-width="2"/>
<path d="M973.948 112.713L928.371 75.0378C928.371 74.9421 928.371 74.7509 928.371 74.6553L973.948 36.9799C973.948 36.9799 973.948 36.9799 973.948 36.8842C973.948 36.8842 973.948 36.693 973.757 36.693C968.884 36.693 963.915 36.693 958.947 36.693C954.169 36.693 951.494 37.5536 948.054 40.4223C937.544 49.124 927.034 57.73 916.619 66.4317C916.619 44.2472 916.619 21.1065 916.619 9.823C916.619 0.0694695 909.835 1.0257 902.287 1.0257C902.096 1.0257 902 1.12132 902 1.31257C902 24.5489 902 89.668 902 113H907.16C912.415 113 916.619 108.793 916.619 103.533C916.619 97.7004 916.619 90.7199 916.619 83.2613C927.32 92.0586 938.022 100.856 948.723 109.653C951.398 111.853 954.647 113 958.469 113C965.444 113 970.508 113 973.661 113C974.043 113 974.139 112.904 973.757 112.618L973.948 112.713Z" fill="#82DE0E" stroke="#82DE0E" stroke-width="2"/>
<path d="M809.926 70.7891C805.046 52.7998 783.325 46.293 768.876 57.6799C760.647 64.1866 759.69 71.746 759.594 82.6544C759.594 90.1181 759.594 97.6774 759.594 105.141C759.594 114.901 753.375 114.901 745.624 114.423C745.433 114.423 745.241 114.327 745.241 114.04C745.241 104.184 745.241 94.2326 745.241 84.3768C745.241 77.4873 745.433 73.0856 745.624 71.2675C748.973 47.1542 773.852 33.1838 796.339 39.6905C815.955 46.0059 823.131 59.785 824.854 76.9131C824.854 77.1045 824.758 77.2959 824.471 77.2959C816.337 78.5398 811.84 76.5304 809.735 70.7891H809.926Z" fill="#82DE0E" stroke="#82DE0E" stroke-width="2"/>
<path d="M792.523 82.7494C797.404 100.739 819.125 107.246 833.574 95.8587C841.803 89.3519 842.76 81.7925 842.855 70.8841C842.855 63.4205 842.855 55.8611 842.855 48.3975C842.855 38.6373 849.075 38.6373 856.826 39.1157C857.017 39.1157 857.209 39.2114 857.209 39.4985C857.209 49.3543 857.209 59.3059 857.209 69.1617C857.209 76.0513 857.017 80.4529 856.826 82.271C853.477 106.384 828.598 120.355 806.111 113.848C786.495 107.533 779.319 93.7535 777.596 76.6254C777.596 76.434 777.692 76.2426 777.979 76.2426C786.112 74.9987 790.61 77.0081 792.715 82.7494H792.523Z" fill="#82DE0E" stroke="#82DE0E" stroke-width="2"/>
</g>
<defs>
<clipPath id="clip0_636_283">
<rect width="976" height="117" fill="white"/>
</clipPath>
</defs>
</svg>
