<svg width="55" height="38" viewBox="0 0 55 38" fill="none" xmlns="http://www.w3.org/2000/svg">
<path d="M31.7743 16.0595C29.3772 7.22288 18.7074 4.02665 11.6099 9.62005C7.56756 12.8163 7.09752 16.5296 7.05051 21.8879C7.05051 25.5542 7.05051 29.2675 7.05051 32.9338C7.05051 37.7281 3.9953 37.7281 0.188025 37.4931C0.0940183 37.4931 0 37.4461 0 37.3051C0 32.4637 0 27.5754 0 22.734C0 19.3498 0.0940183 17.1876 0.188025 16.2945C1.83315 4.44968 14.054 -2.41282 25.0998 0.783411C34.7355 3.88564 38.2608 10.6541 39.1069 19.0677C39.1069 19.1617 39.0599 19.2558 38.9189 19.2558C34.9236 19.8668 32.7144 18.8797 31.6803 16.0595H31.7743Z" fill="#82DE0E"/>
<path d="M23.2257 21.9365C25.6229 30.7732 36.2927 33.9694 43.3902 28.376C47.4325 25.1798 47.9025 21.4665 47.9495 16.1081C47.9495 12.4419 47.9495 8.72858 47.9495 5.06231C47.9495 0.267963 51.0047 0.267962 54.812 0.50298C54.906 0.50298 55 0.549984 55 0.690994C55 5.53235 55 10.4207 55 15.2621C55 18.6463 54.906 20.8085 54.812 21.7015C53.1669 33.5464 40.946 40.4089 29.9002 37.2127C20.2645 34.1104 16.7393 27.3419 15.8932 18.9283C15.8932 18.8343 15.9402 18.7403 16.0812 18.7403C20.0765 18.1293 22.2856 19.1163 23.3197 21.9365H23.2257Z" fill="#82DE0E"/>
</svg>
