<svg width="98" height="98" viewBox="0 0 98 98" fill="none" xmlns="http://www.w3.org/2000/svg">
<path fill-rule="evenodd" clip-rule="evenodd" d="M49 0C21.9373 0 0 21.9373 0 49C0 76.0627 21.9373 98 49 98C76.0627 98 98 76.0627 98 49C98 21.9373 76.0627 0 49 0ZM31.85 36.75C31.85 34.4978 32.2936 32.2677 33.1555 30.187C34.0173 28.1062 35.2806 26.2156 36.8731 24.6231C38.4656 23.0306 40.3562 21.7673 42.437 20.9055C44.5177 20.0436 46.7478 19.6 49 19.6C51.2522 19.6 53.4823 20.0436 55.563 20.9055C57.6438 21.7673 59.5344 23.0306 61.1269 24.6231C62.7194 26.2156 63.9827 28.1062 64.8445 30.187C65.7064 32.2677 66.15 34.4978 66.15 36.75C66.15 41.2985 64.3431 45.6606 61.1269 48.8769C57.9106 52.0931 53.5485 53.9 49 53.9C44.4515 53.9 40.0894 52.0931 36.8731 48.8769C33.6569 45.6606 31.85 41.2985 31.85 36.75ZM79.6642 73.4216C75.9962 78.0356 71.3332 81.7612 66.0234 84.3202C60.7136 86.8792 54.8943 88.2055 49 88.2C43.1057 88.2055 37.2864 86.8792 31.9766 84.3202C26.6668 81.7612 22.0038 78.0356 18.3358 73.4216C26.2787 67.7229 37.1175 63.7 49 63.7C60.8825 63.7 71.7213 67.7229 79.6642 73.4216Z" fill="#E4E4E4"/>
</svg>
