<svg width="20" height="16" viewBox="0 0 20 16" fill="none" xmlns="http://www.w3.org/2000/svg">
<path d="M7.193 5.249C7.32602 5.10117 7.51231 5.01223 7.71091 5.00173C7.9095 4.99123 8.10413 5.06003 8.252 5.193L10.752 7.443C10.83 7.51332 10.8923 7.59924 10.935 7.69519C10.9777 7.79114 10.9998 7.89499 10.9998 8C10.9998 8.10501 10.9777 8.20886 10.935 8.30481C10.8923 8.40076 10.83 8.48668 10.752 8.557L8.252 10.807C8.10414 10.9401 7.90945 11.0091 7.71076 10.9987C7.51206 10.9883 7.32564 10.8994 7.1925 10.7515C7.05936 10.6036 6.99041 10.409 7.00082 10.2103C7.01123 10.0116 7.10014 9.82514 7.248 9.692L8.296 8.75H4.75C4.65151 8.75 4.55398 8.7306 4.46299 8.69291C4.37199 8.65522 4.28931 8.59997 4.21967 8.53033C4.15003 8.46069 4.09478 8.37801 4.05709 8.28701C4.0194 8.19602 4 8.09849 4 8C4 7.90151 4.0194 7.80398 4.05709 7.71299C4.09478 7.62199 4.15003 7.53931 4.21967 7.46967C4.28931 7.40003 4.37199 7.34478 4.46299 7.30709C4.55398 7.2694 4.65151 7.25 4.75 7.25H8.296L7.248 6.308C7.17473 6.24205 7.11517 6.1623 7.07275 6.07332C7.03032 5.98433 7.00585 5.88785 7.00074 5.7894C6.99563 5.69095 7.00998 5.59246 7.04297 5.49956C7.07596 5.40666 7.12694 5.32218 7.193 5.249ZM20 13.25C20 13.6111 19.9289 13.9687 19.7907 14.3024C19.6525 14.636 19.4499 14.9392 19.1945 15.1945C18.9392 15.4499 18.636 15.6525 18.3024 15.7907C17.9687 15.9289 17.6111 16 17.25 16H2.75C2.38886 16 2.03127 15.9289 1.69762 15.7907C1.36398 15.6525 1.06082 15.4499 0.805456 15.1945C0.550095 14.9392 0.347532 14.636 0.209331 14.3024C0.0711308 13.9687 0 13.6111 0 13.25V2.75C0 2.02065 0.289731 1.32118 0.805456 0.805456C1.32118 0.289731 2.02065 0 2.75 0H17.25C17.9793 0 18.6788 0.289731 19.1945 0.805456C19.7103 1.32118 20 2.02065 20 2.75V13.25ZM17.25 14.5C17.94 14.5 18.5 13.94 18.5 13.25V2.749C18.5 2.059 17.94 1.499 17.25 1.499H13.996V14.5H17.25ZM12.496 14.5V1.5H2.75C2.06 1.5 1.5 2.06 1.5 2.75V13.25C1.5 13.94 2.06 14.5 2.75 14.5H12.496Z" fill="#666666"/>
</svg>
