<svg width="19" height="19" viewBox="0 0 19 19" fill="none" xmlns="http://www.w3.org/2000/svg">
<path d="M12 5.1803V3.1803C12 2.64986 11.7893 2.14116 11.4142 1.76608C11.0391 1.39101 10.5304 1.1803 10 1.1803H3C2.46957 1.1803 1.96086 1.39101 1.58579 1.76608C1.21071 2.14116 1 2.64986 1 3.1803V15.1803C1 15.7107 1.21071 16.2194 1.58579 16.5945C1.96086 16.9696 2.46957 17.1803 3 17.1803H10C10.5304 17.1803 11.0391 16.9696 11.4142 16.5945C11.7893 16.2194 12 15.7107 12 15.1803V13.1803" stroke="#666666" stroke-width="2" stroke-linecap="round" stroke-linejoin="round"/>
<path d="M18 9.1803H5M5 9.1803L8 6.1803M5 9.1803L8 12.1803" stroke="#666666" stroke-width="2" stroke-linecap="round" stroke-linejoin="round"/>
</svg>
